<svg width="283" height="62" viewBox="0 0 283 62" fill="none" xmlns="http://www.w3.org/2000/svg">
<path d="M17.22 45L11.234 34.135H9.553V45H2.542V16.218H14.309C16.5777 16.218 18.5047 16.6143 20.09 17.407C21.7027 18.1997 22.9053 19.293 23.698 20.687C24.4907 22.0537 24.887 23.5843 24.887 25.279C24.887 27.1923 24.3403 28.9007 23.247 30.404C22.181 31.9073 20.5957 32.9733 18.491 33.602L25.133 45H17.22ZM9.553 29.174H13.899C15.1837 29.174 16.1403 28.8597 16.769 28.231C17.425 27.6023 17.753 26.714 17.753 25.566C17.753 24.4727 17.425 23.6117 16.769 22.983C16.1403 22.3543 15.1837 22.04 13.899 22.04H9.553V29.174ZM36.2991 21.835V27.657H45.6881V33.069H36.2991V39.383H46.9181V45H29.2881V16.218H46.9181V21.835H36.2991ZM77.2177 45H70.2067L58.4807 27.247V45H51.4697V16.218H58.4807L70.2067 34.053V16.218H77.2177V45ZM103.005 16.218V21.835H95.3788V45H88.3678V21.835H80.7418V16.218H103.005ZM129.155 16.423V45H125.424V32.044H110.869V45H107.138V16.423H110.869V28.969H125.424V16.423H129.155ZM148.482 45.287C145.831 45.287 143.412 44.672 141.225 43.442C139.038 42.1847 137.303 40.449 136.018 38.235C134.761 35.9937 134.132 33.479 134.132 30.691C134.132 27.903 134.761 25.402 136.018 23.188C137.303 20.9467 139.038 19.211 141.225 17.981C143.412 16.7237 145.831 16.095 148.482 16.095C151.161 16.095 153.593 16.7237 155.78 17.981C157.967 19.211 159.689 20.933 160.946 23.147C162.203 25.361 162.832 27.8757 162.832 30.691C162.832 33.5063 162.203 36.021 160.946 38.235C159.689 40.449 157.967 42.1847 155.78 43.442C153.593 44.672 151.161 45.287 148.482 45.287ZM148.482 42.048C150.477 42.048 152.268 41.5833 153.853 40.654C155.466 39.7247 156.723 38.399 157.625 36.677C158.554 34.955 159.019 32.9597 159.019 30.691C159.019 28.395 158.554 26.3997 157.625 24.705C156.723 22.983 155.479 21.6573 153.894 20.728C152.309 19.7987 150.505 19.334 148.482 19.334C146.459 19.334 144.655 19.7987 143.07 20.728C141.485 21.6573 140.227 22.983 139.298 24.705C138.396 26.3997 137.945 28.395 137.945 30.691C137.945 32.9597 138.396 34.955 139.298 36.677C140.227 38.399 141.485 39.7247 143.07 40.654C144.683 41.5833 146.487 42.048 148.482 42.048ZM196.745 16.628V45H193.014V23.844L183.584 45H180.96L171.489 23.803V45H167.758V16.628H171.776L182.272 40.08L192.768 16.628H196.745ZM206.803 19.457V29.01H217.217V32.085H206.803V41.925H218.447V45H203.072V16.382H218.447V19.457H206.803ZM233.154 45.287C231.268 45.287 229.573 44.959 228.07 44.303C226.594 43.6197 225.432 42.6903 224.585 41.515C223.737 40.3123 223.3 38.932 223.273 37.374H227.25C227.386 38.7133 227.933 39.8477 228.89 40.777C229.874 41.679 231.295 42.13 233.154 42.13C234.93 42.13 236.324 41.6927 237.336 40.818C238.374 39.916 238.894 38.768 238.894 37.374C238.894 36.2807 238.593 35.3923 237.992 34.709C237.39 34.0257 236.639 33.5063 235.737 33.151C234.835 32.7957 233.618 32.413 232.088 32.003C230.202 31.511 228.685 31.019 227.537 30.527C226.416 30.035 225.446 29.2697 224.626 28.231C223.833 27.165 223.437 25.7437 223.437 23.967C223.437 22.409 223.833 21.0287 224.626 19.826C225.418 18.6233 226.525 17.694 227.947 17.038C229.395 16.382 231.049 16.054 232.908 16.054C235.586 16.054 237.773 16.7237 239.468 18.063C241.19 19.4023 242.16 21.179 242.379 23.393H238.279C238.142 22.2997 237.568 21.343 236.557 20.523C235.545 19.6757 234.206 19.252 232.539 19.252C230.981 19.252 229.71 19.662 228.726 20.482C227.742 21.2747 227.25 22.3953 227.25 23.844C227.25 24.8827 227.537 25.73 228.111 26.386C228.712 27.042 229.436 27.5477 230.284 27.903C231.158 28.231 232.375 28.6137 233.933 29.051C235.819 29.5703 237.336 30.0897 238.484 30.609C239.632 31.101 240.616 31.88 241.436 32.946C242.256 33.9847 242.666 35.406 242.666 37.21C242.666 38.604 242.297 39.916 241.559 41.146C240.821 42.376 239.727 43.3737 238.279 44.139C236.83 44.9043 235.122 45.287 233.154 45.287Z" fill="#475C46"/>
<g filter="url(#filter0_d_174_84)">
<path d="M266.5 10L278.191 25.75H254.809L266.5 10Z" fill="#D9D9D9"/>
<path d="M255.803 25.25L266.5 10.8389L277.197 25.25H255.803Z" stroke="#475C46"/>
</g>
<g filter="url(#filter1_d_174_84)">
<rect x="256" y="26" width="21" height="22" fill="#D9D9D9"/>
<rect x="256.5" y="26.5" width="20" height="21" stroke="#475C46"/>
</g>
<defs>
<filter id="filter0_d_174_84" x="250.809" y="10" width="31.3828" height="23.75" filterUnits="userSpaceOnUse" color-interpolation-filters="sRGB">
<feFlood flood-opacity="0" result="BackgroundImageFix"/>
<feColorMatrix in="SourceAlpha" type="matrix" values="0 0 0 0 0 0 0 0 0 0 0 0 0 0 0 0 0 0 127 0" result="hardAlpha"/>
<feOffset dy="4"/>
<feGaussianBlur stdDeviation="2"/>
<feComposite in2="hardAlpha" operator="out"/>
<feColorMatrix type="matrix" values="0 0 0 0 0 0 0 0 0 0 0 0 0 0 0 0 0 0 0.25 0"/>
<feBlend mode="normal" in2="BackgroundImageFix" result="effect1_dropShadow_174_84"/>
<feBlend mode="normal" in="SourceGraphic" in2="effect1_dropShadow_174_84" result="shape"/>
</filter>
<filter id="filter1_d_174_84" x="252" y="26" width="29" height="30" filterUnits="userSpaceOnUse" color-interpolation-filters="sRGB">
<feFlood flood-opacity="0" result="BackgroundImageFix"/>
<feColorMatrix in="SourceAlpha" type="matrix" values="0 0 0 0 0 0 0 0 0 0 0 0 0 0 0 0 0 0 127 0" result="hardAlpha"/>
<feOffset dy="4"/>
<feGaussianBlur stdDeviation="2"/>
<feComposite in2="hardAlpha" operator="out"/>
<feColorMatrix type="matrix" values="0 0 0 0 0 0 0 0 0 0 0 0 0 0 0 0 0 0 0.25 0"/>
<feBlend mode="normal" in2="BackgroundImageFix" result="effect1_dropShadow_174_84"/>
<feBlend mode="normal" in="SourceGraphic" in2="effect1_dropShadow_174_84" result="shape"/>
</filter>
</defs>
</svg>
